<svg width="19" height="18" viewBox="0 0 19 18" fill="none" xmlns="http://www.w3.org/2000/svg">
<path d="M8.88801 17.8001L1.01301 10.0351C0.937724 9.95771 0.880687 9.8645 0.846082 9.76225C0.811477 9.65999 0.800183 9.5512 0.813016 9.44401C0.637856 9.29231 0.529931 9.07744 0.512876 8.84635C0.495821 8.61526 0.571021 8.38687 0.722013 8.2111L8.84301 0.203042C9.02504 0.0526924 9.25841 -0.0209438 9.49376 -0.00228021C9.7291 0.0163834 9.94797 0.125858 10.104 0.303018C10.1927 0.377867 10.2656 0.469491 10.3187 0.572671C10.3717 0.675851 10.4038 0.788568 10.4131 0.904214C10.4224 1.01986 10.4087 1.13617 10.3728 1.2465C10.3369 1.35683 10.2796 1.45899 10.204 1.54704L3.62701 8.03202H17.55C17.802 8.03202 18.0436 8.13218 18.2218 8.31034C18.3999 8.4885 18.5 8.73014 18.5 8.98209V8.99198C18.4997 9.24386 18.3996 9.48539 18.2215 9.66349C18.0434 9.84159 17.8019 9.94179 17.55 9.94206H3.55902L10.208 16.4991C10.281 16.5847 10.3363 16.6839 10.3708 16.7909C10.4052 16.898 10.4182 17.0108 10.4089 17.1228C10.3996 17.2349 10.3682 17.3441 10.3166 17.444C10.265 17.5439 10.1941 17.6326 10.108 17.705C9.92271 17.8924 9.67153 18.0001 9.40802 18.005C9.21439 18.0082 9.02741 17.9345 8.88801 17.8001Z" fill="#11293B"/>
</svg>
