<svg width="20" height="21" viewBox="0 0 20 21" fill="none" xmlns="http://www.w3.org/2000/svg">
<path d="M11.8579 19.3831C11.8581 19.0635 11.9531 18.751 12.1308 18.4854C12.3085 18.2197 12.5609 18.0128 12.8562 17.8906C13.1515 17.7685 13.4764 17.7366 13.7898 17.7991C14.1032 17.8615 14.3911 18.0157 14.617 18.2417C14.8429 18.4677 14.9967 18.7556 15.059 19.0691C15.1212 19.3825 15.0892 19.7075 14.9668 20.0027C14.8445 20.2979 14.6374 20.5503 14.3716 20.7278C14.1059 20.9053 13.7935 21 13.4739 21C13.0454 20.9992 12.6347 20.8285 12.3318 20.5254C12.0289 20.2223 11.8585 19.8116 11.8579 19.3831ZM5.39395 19.3831C5.39415 19.0634 5.48911 18.751 5.66684 18.4854C5.84457 18.2197 6.0971 18.0128 6.39246 17.8906C6.68782 17.7685 7.01274 17.7368 7.32617 17.7993C7.63961 17.8619 7.92746 18.0158 8.15332 18.2419C8.37918 18.4681 8.53293 18.7563 8.59509 19.0698C8.65725 19.3833 8.62503 19.7082 8.50253 20.0034C8.38004 20.2986 8.17278 20.5509 7.90692 20.7283C7.64106 20.9057 7.32856 21.0002 7.00894 21C6.58051 20.9992 6.16988 20.8285 5.86713 20.5254C5.56437 20.2223 5.39422 19.8115 5.39395 19.3831ZM6.47095 15.6089C6.18547 15.6084 5.91182 15.4948 5.70996 15.293C5.5081 15.0911 5.39448 14.8175 5.39395 14.532C5.39552 14.4939 5.40224 14.4563 5.41394 14.42C5.41894 14.398 5.42592 14.377 5.42892 14.354L3.32294 5.90698H2.69995V5.74097C2.53894 5.84475 2.35245 5.9022 2.16095 5.90698H1.08395C0.798051 5.90698 0.52385 5.79347 0.321686 5.59131C0.119522 5.38914 0.00595093 5.11488 0.00595093 4.82898C0.00595093 4.54308 0.119522 4.26894 0.321686 4.06677C0.52385 3.86461 0.798051 3.75098 1.08395 3.75098H2.16095C2.35255 3.75514 2.53921 3.81264 2.69995 3.91699V3.75098H8.66293C8.64093 3.96598 8.62994 4.18799 8.62994 4.41199V5C8.63003 5.30313 8.65141 5.60588 8.69394 5.90601H5.44995L6.52493 10.219H11.3169C12.4022 10.9969 13.7047 11.4139 15.0399 11.411H15.1609L15.0109 11.837H14.937C14.8548 11.9974 14.7309 12.1325 14.5783 12.2283C14.4257 12.324 14.2501 12.3768 14.0699 12.381H7.06195L7.33093 13.458H14.0129C14.2988 13.458 14.573 13.5715 14.7752 13.7737C14.9774 13.9758 15.0909 14.2501 15.0909 14.536C15.0909 14.8219 14.9774 15.0962 14.7752 15.2983C14.573 15.5005 14.2988 15.614 14.0129 15.614L6.47095 15.6089ZM15.2899 8.53101C15.1704 8.53101 15.0519 8.50746 14.9415 8.46167C14.831 8.41588 14.7306 8.34877 14.6461 8.26416C14.5616 8.17955 14.4946 8.07903 14.4489 7.96851C14.4032 7.85798 14.3798 7.73958 14.3799 7.62V5.66101H12.4099C12.2904 5.66101 12.1721 5.63741 12.0617 5.59167C11.9513 5.54594 11.851 5.47891 11.7665 5.39441C11.682 5.30991 11.6149 5.20965 11.5692 5.09924C11.5235 4.98884 11.4999 4.87048 11.4999 4.75098V4.66101C11.4998 4.54147 11.5233 4.42309 11.5689 4.31262C11.6146 4.20216 11.6816 4.10174 11.7662 4.01721C11.8507 3.93268 11.9511 3.86563 12.0616 3.81995C12.172 3.77426 12.2904 3.75084 12.4099 3.75098H14.3799V1.78101C14.3798 1.66142 14.4032 1.54302 14.4489 1.4325C14.4946 1.32197 14.5616 1.22145 14.6461 1.13684C14.7306 1.05223 14.831 0.985125 14.9415 0.939331C15.0519 0.893537 15.1704 0.869995 15.2899 0.869995H15.3799C15.6214 0.87026 15.8528 0.96639 16.0235 1.13721C16.1941 1.30802 16.2899 1.53957 16.2899 1.78101V3.75098H18.2499C18.4913 3.75098 18.7227 3.84692 18.8934 4.01758C19.0641 4.18824 19.1599 4.41966 19.1599 4.66101V4.75098C19.1599 4.99232 19.0641 5.22375 18.8934 5.39441C18.7227 5.56507 18.4913 5.66101 18.2499 5.66101H16.2899V7.62C16.2899 7.86143 16.1941 8.09298 16.0235 8.26379C15.8528 8.43461 15.6214 8.53074 15.3799 8.53101H15.2899Z" fill="#677585"/>
</svg>
