<svg width="74" height="70" viewBox="0 0 74 70" fill="none" xmlns="http://www.w3.org/2000/svg">
<path d="M39.011 5.98102C39.011 2.28768 37.2847 0.44101 33.832 0.44101H26.263C22.8097 0.44101 21.0833 2.28768 21.084 5.98102V32.781H25.409V20.934L39.009 20.943L39.011 5.98102ZM34.687 17.015H25.408V6.255C25.3722 5.99884 25.3964 5.73788 25.4786 5.49265C25.5608 5.24741 25.6988 5.02456 25.8817 4.84167C26.0646 4.65878 26.2874 4.52082 26.5326 4.43863C26.7778 4.35644 27.0388 4.33227 27.295 4.36801H32.795C33.0512 4.33227 33.3121 4.35644 33.5574 4.43863C33.8026 4.52082 34.0254 4.65878 34.2083 4.84167C34.3912 5.02456 34.5292 5.24741 34.6113 5.49265C34.6935 5.73788 34.7177 5.99884 34.682 6.255L34.687 17.015Z" fill="#001C66"/>
<path d="M22.0172 32.3737V6.0637C21.9079 4.68928 22.3231 3.32447 23.1792 2.24369C23.6494 1.80527 24.2057 1.46957 24.8128 1.25797C25.4199 1.04638 26.0643 0.96352 26.7052 1.01469H34.2742C34.915 0.96352 35.5595 1.04638 36.1665 1.25797C36.7736 1.46957 37.33 1.80527 37.8002 2.24369C38.6566 3.32432 39.0721 4.68915 38.9632 6.0637V20.5347L25.3632 20.5257V32.3717L22.0172 32.3737ZM27.7412 3.95469C27.4192 3.91742 27.093 3.95343 26.7869 4.06001C26.4808 4.16658 26.2028 4.34099 25.9736 4.57017C25.7444 4.79935 25.5701 5.07735 25.4635 5.38343C25.3569 5.68951 25.3209 6.01576 25.3582 6.33772V17.5937H35.6212V6.33469C35.6584 6.01274 35.6225 5.68652 35.5159 5.38044C35.4093 5.07436 35.2349 4.79633 35.0057 4.56715C34.7765 4.33797 34.4985 4.16359 34.1924 4.05702C33.8863 3.95044 33.5601 3.91442 33.2382 3.9517L27.7412 3.95469Z" fill="#163B9C"/>
<path d="M49.053 0.44101V26.741C49.053 28.1523 48.4676 28.8577 47.297 28.857H40.924C39.666 28.857 39.037 28.1517 39.037 26.741L39.031 22.478H34.707L34.713 26.605C34.713 30.719 36.4393 32.776 39.892 32.776H48.16C51.6427 32.776 53.384 30.734 53.384 26.65V0.44101H49.053Z" fill="url(#paint0_linear_0_173)"/>
<path d="M39.885 32.288C39.2361 32.3409 38.5837 32.2454 37.9772 32.0085C37.3708 31.7717 36.8262 31.3997 36.385 30.921C35.5043 29.6629 35.0873 28.1382 35.205 26.607L35.2 22.972H38.542L38.547 26.747C38.547 28.428 39.394 29.353 40.93 29.353H47.303C48.142 29.353 49.55 29.014 49.55 26.747V0.934998H52.891V26.656C53.0084 28.1764 52.5875 29.6896 51.702 30.931C51.2515 31.4098 50.6988 31.7807 50.0849 32.016C49.4711 32.2513 48.812 32.345 48.157 32.29L39.885 32.288Z" fill="url(#paint1_linear_0_173)"/>
<path d="M12.512 56.029C12.512 50.187 4.048 52.441 4.048 48.83C4.048 47.289 5.221 46.553 6.739 46.599C8.395 46.645 9.338 47.634 9.43 48.715H12.328C12.098 45.978 9.936 44.368 6.877 44.368C3.611 44.368 1.38 46.116 1.38 48.922C1.38 54.81 9.867 52.303 9.867 56.167C9.867 57.524 8.832 58.513 6.992 58.513C5.175 58.513 4.255 57.455 4.14 56.144H1.334C1.334 58.973 3.795 60.721 6.992 60.721C10.557 60.721 12.512 58.421 12.512 56.029ZM16.0199 57.041C16.0199 59.617 17.4229 60.56 19.6769 60.56H21.7469V58.375H20.1369C19.0329 58.375 18.6649 57.984 18.6649 57.041V50.026H21.7469V47.887H18.6649V44.736H16.0199V47.887H14.5249V50.026H16.0199V57.041ZM35.6405 47.887H33.0185V54.948C33.0185 57.271 31.7535 58.467 29.8215 58.467C27.9125 58.467 26.6475 57.271 26.6475 54.948V47.887H24.0485V55.339C24.0485 58.881 26.3025 60.744 29.2695 60.744C30.7645 60.744 32.1905 60.123 33.0185 59.042V60.56H35.6405V47.887ZM38.226 54.166C38.226 58.076 40.871 60.767 44.206 60.767C46.276 60.767 47.794 59.801 48.599 58.651V60.56H51.244V43.54H48.599V49.658C47.633 48.462 45.885 47.68 44.229 47.68C40.871 47.68 38.226 50.256 38.226 54.166ZM48.599 54.212C48.599 56.949 46.736 58.49 44.758 58.49C42.803 58.49 40.917 56.903 40.917 54.166C40.917 51.429 42.803 49.957 44.758 49.957C46.736 49.957 48.599 51.498 48.599 54.212ZM54.6879 60.56H57.3099V47.887H54.6879V60.56ZM56.0219 46.208C56.9419 46.208 57.6779 45.472 57.6779 44.529C57.6779 43.586 56.9419 42.85 56.0219 42.85C55.0789 42.85 54.3429 43.586 54.3429 44.529C54.3429 45.472 55.0789 46.208 56.0219 46.208ZM72.8273 54.212C72.8273 50.233 69.9753 47.68 66.3643 47.68C62.7533 47.68 59.9013 50.233 59.9013 54.212C59.9013 58.191 62.6383 60.767 66.2493 60.767C69.8833 60.767 72.8273 58.191 72.8273 54.212ZM62.5693 54.212C62.5693 51.337 64.3403 49.957 66.3183 49.957C68.2733 49.957 70.1363 51.337 70.1363 54.212C70.1363 57.087 68.2043 58.49 66.2493 58.49C64.2713 58.49 62.5693 57.087 62.5693 54.212Z" fill="black"/>
<defs>
<linearGradient id="paint0_linear_0_173" x1="63.7684" y1="-6.41401" x2="20.484" y2="7.08349" gradientUnits="userSpaceOnUse">
<stop/>
<stop offset="0.5"/>
<stop offset="1"/>
</linearGradient>
<linearGradient id="paint1_linear_0_173" x1="62.7653" y1="-5.71551" x2="21.53" y2="6.8627" gradientUnits="userSpaceOnUse">
<stop/>
<stop offset="0.5"/>
<stop offset="1"/>
</linearGradient>
</defs>
</svg>
