<svg width="24" height="24" viewBox="0 0 24 24" fill="none" xmlns="http://www.w3.org/2000/svg">
<rect opacity="0.01" width="24" height="24" fill="black"/>
<path d="M12 13C12.5523 13 13 12.5523 13 12V2C13 1.44772 12.5523 1 12 1C11.4477 1 11 1.44772 11 2V12C11 12.5523 11.4477 13 12 13Z" fill="black"/>
<path d="M16.59 3.11001C16.0985 2.85596 15.494 3.04848 15.24 3.54001C14.9859 4.03155 15.1785 4.63596 15.67 4.89001C18.9496 6.58321 20.6451 10.3003 19.7739 13.8869C18.9027 17.4735 15.6909 19.9985 12 19.9985C8.3091 19.9985 5.09727 17.4735 4.22605 13.8869C3.35484 10.3003 5.05039 6.58321 8.32999 4.89001C8.64796 4.72567 8.85409 4.40418 8.87075 4.04664C8.88741 3.6891 8.71206 3.34984 8.41075 3.15664C8.10944 2.96344 7.72796 2.94567 7.40999 3.11001C3.31155 5.22742 1.19337 9.87362 2.2829 14.3562C3.37243 18.8388 7.3869 21.9944 12 21.9944C16.6131 21.9944 20.6276 18.8388 21.7171 14.3562C22.8066 9.87362 20.6884 5.22742 16.59 3.11001Z" fill="black"/>
</svg>
