<svg width="74" height="70" viewBox="0 0 74 70" fill="none" xmlns="http://www.w3.org/2000/svg">
<path d="M39.011 5.54001C39.011 1.84668 37.2847 0 33.832 0H26.263C22.8097 0 21.0833 1.84668 21.084 5.54001V32.34H25.409V20.493L39.009 20.502L39.011 5.54001ZM34.687 16.574H25.408V5.814C25.3722 5.55783 25.3964 5.29687 25.4786 5.05164C25.5608 4.8064 25.6988 4.58356 25.8817 4.40067C26.0646 4.21778 26.2874 4.07981 26.5326 3.99762C26.7778 3.91543 27.0388 3.89126 27.295 3.927H32.795C33.0512 3.89126 33.3121 3.91543 33.5574 3.99762C33.8026 4.07981 34.0254 4.21778 34.2083 4.40067C34.3912 4.58356 34.5292 4.8064 34.6113 5.05164C34.6935 5.29687 34.7177 5.55783 34.682 5.814L34.687 16.574Z" fill="#FF5E00"/>
<path d="M21.574 31.847V5.53703C21.4647 4.16261 21.8799 2.79779 22.736 1.71702C23.2062 1.27859 23.7625 0.942896 24.3696 0.731301C24.9767 0.519706 25.6212 0.436848 26.262 0.488015H33.831C34.4719 0.436848 35.1163 0.519706 35.7234 0.731301C36.3304 0.942896 36.8868 1.27859 37.357 1.71702C38.2134 2.79765 38.629 4.16248 38.52 5.53703V20.008L24.92 19.999V31.845L21.574 31.847ZM27.298 3.42802C26.976 3.39074 26.6498 3.42676 26.3437 3.53333C26.0376 3.63991 25.7596 3.81432 25.5304 4.0435C25.3013 4.27267 25.1269 4.55068 25.0203 4.85676C24.9137 5.16284 24.8777 5.48909 24.915 5.81104V17.067H35.178V5.80802C35.2153 5.48607 35.1793 5.15985 35.0727 4.85377C34.9661 4.54769 34.7917 4.26965 34.5625 4.04048C34.3334 3.8113 34.0553 3.63692 33.7492 3.53034C33.4432 3.42377 33.117 3.38775 32.795 3.42503L27.298 3.42802Z" fill="#FF5E00"/>
<path d="M49.053 0V26.3C49.053 27.7113 48.4676 28.4167 47.297 28.416H40.924C39.666 28.416 39.037 27.7107 39.037 26.3L39.031 22.037H34.707L34.713 26.164C34.713 30.278 36.4393 32.335 39.892 32.335H48.16C51.6427 32.335 53.384 30.293 53.384 26.209V0H49.053Z" fill="white"/>
<path d="M39.885 31.847C39.2361 31.9 38.5837 31.8044 37.9772 31.5675C37.3708 31.3307 36.8262 30.9588 36.385 30.48C35.5043 29.2219 35.0873 27.6972 35.205 26.166L35.2 22.531H38.542L38.547 26.306C38.547 27.987 39.394 28.912 40.93 28.912H47.303C48.142 28.912 49.55 28.573 49.55 26.306V0.494019H52.891V26.215C53.0084 27.7354 52.5875 29.2486 51.702 30.49C51.2515 30.9688 50.6988 31.3397 50.0849 31.575C49.4711 31.8103 48.812 31.904 48.157 31.849L39.885 31.847Z" fill="white"/>
<path d="M12.512 55.588C12.512 49.746 4.048 52 4.048 48.389C4.048 46.848 5.221 46.112 6.739 46.158C8.395 46.204 9.338 47.193 9.43 48.274H12.328C12.098 45.537 9.936 43.927 6.877 43.927C3.611 43.927 1.38 45.675 1.38 48.481C1.38 54.369 9.867 51.862 9.867 55.726C9.867 57.083 8.832 58.072 6.992 58.072C5.175 58.072 4.255 57.014 4.14 55.703H1.334C1.334 58.532 3.795 60.28 6.992 60.28C10.557 60.28 12.512 57.98 12.512 55.588ZM16.0199 56.6C16.0199 59.176 17.4229 60.119 19.6769 60.119H21.7469V57.934H20.1369C19.0329 57.934 18.6649 57.543 18.6649 56.6V49.585H21.7469V47.446H18.6649V44.295H16.0199V47.446H14.5249V49.585H16.0199V56.6ZM35.6405 47.446H33.0185V54.507C33.0185 56.83 31.7535 58.026 29.8215 58.026C27.9125 58.026 26.6475 56.83 26.6475 54.507V47.446H24.0485V54.898C24.0485 58.44 26.3025 60.303 29.2695 60.303C30.7645 60.303 32.1905 59.682 33.0185 58.601V60.119H35.6405V47.446ZM38.226 53.725C38.226 57.635 40.871 60.326 44.206 60.326C46.276 60.326 47.794 59.36 48.599 58.21V60.119H51.244V43.099H48.599V49.217C47.633 48.021 45.885 47.239 44.229 47.239C40.871 47.239 38.226 49.815 38.226 53.725ZM48.599 53.771C48.599 56.508 46.736 58.049 44.758 58.049C42.803 58.049 40.917 56.462 40.917 53.725C40.917 50.988 42.803 49.516 44.758 49.516C46.736 49.516 48.599 51.057 48.599 53.771ZM54.6879 60.119H57.3099V47.446H54.6879V60.119ZM56.0219 45.767C56.9419 45.767 57.6779 45.031 57.6779 44.088C57.6779 43.145 56.9419 42.409 56.0219 42.409C55.0789 42.409 54.3429 43.145 54.3429 44.088C54.3429 45.031 55.0789 45.767 56.0219 45.767ZM72.8273 53.771C72.8273 49.792 69.9753 47.239 66.3643 47.239C62.7533 47.239 59.9013 49.792 59.9013 53.771C59.9013 57.75 62.6383 60.326 66.2493 60.326C69.8833 60.326 72.8273 57.75 72.8273 53.771ZM62.5693 53.771C62.5693 50.896 64.3403 49.516 66.3183 49.516C68.2733 49.516 70.1363 50.896 70.1363 53.771C70.1363 56.646 68.2043 58.049 66.2493 58.049C64.2713 58.049 62.5693 56.646 62.5693 53.771Z" fill="white"/>
</svg>
